PathFileType	4	(X/Y/Z) flx_0kg_3.trc																										
DataRate	CameraRate	NumFrames	NumMarkers	Units	OrigDataRate	OrigDataStartFrame	OrigNumFrames																					
100	100	43	9	mm	100	731	835																					
Frame#	Time	gu			centelbow			EpL			centpxt8			centijc7			ij			ts			aa			ai		
		X1	Y1	Z1	X2	Y2	Z2	X3	Y3	Z3	X4	Y4	Z4	X5	Y5	Z5	X6	Y6	Z6	X7	Y7	Z7	X8	Y8	Z8	X9	Y9	Z9  
730	7.3	-78.221	-13.926	166.309	-129.387	-254.62	187.116	-109.446	-252.579	212.367	-46.816	-153.158	-8.669	-46.816	31.938	-8.669	0	0	0	-133.505	24.954	49.357	-109.491	21.508	166.131	-143.802	-88.018	53.464
731	7.31	-78.152	-14.029	166.392	-129.352	-254.717	187.183	-109.419	-252.678	212.441	-46.816	-153.158	-8.669	-46.816	31.938	-8.669	0	0	0	-133.412	24.927	49.555	-109.412	21.477	166.332	-143.695	-88.047	53.654
732	7.32	-78.083	-14.081	166.483	-129.27	-254.771	187.281	-109.341	-252.729	212.542	-46.816	-153.158	-8.669	-46.816	31.938	-8.669	0	0	0	-133.475	24.945	49.856	-109.485	21.504	166.636	-143.741	-88.031	53.959
733	7.33	-78.084	-14.027	166.609	-129.199	-254.729	187.442	-109.275	-252.677	212.705	-46.816	-153.158	-8.669	-46.816	31.938	-8.669	0	0	0	-133.604	25.037	50.179	-109.62	21.611	166.96	-143.851	-87.939	54.292
734	7.34	-78.109	-13.911	166.671	-129.132	-254.628	187.555	-109.209	-252.563	212.818	-46.816	-153.158	-8.669	-46.816	31.938	-8.669	0	0	0	-133.653	25.204	50.366	-109.67	21.79	167.148	-143.881	-87.774	54.487
735	7.35	-78.118	-13.839	166.62	-129.085	-254.563	187.563	-109.158	-252.488	212.823	-46.816	-153.158	-8.669	-46.816	31.938	-8.669	0	0	0	-133.565	25.325	50.391	-109.575	21.917	167.171	-143.783	-87.654	54.516
736	7.36	-78.171	-13.897	166.618	-129.132	-254.618	187.608	-109.204	-252.538	212.867	-46.816	-153.158	-8.669	-46.816	31.938	-8.669	0	0	0	-133.451	25.241	50.375	-109.455	21.833	167.155	-143.688	-87.735	54.505
737	7.37	-78.275	-14.052	166.75	-129.251	-254.769	187.754	-109.327	-252.688	213.015	-46.816	-153.158	-8.669	-46.816	31.938	-8.669	0	0	0	-133.474	24.98	50.451	-109.481	21.572	167.231	-143.755	-87.992	54.589
738	7.38	-78.353	-14.189	166.872	-129.327	-254.906	187.868	-109.404	-252.825	213.129	-46.816	-153.158	-8.669	-46.816	31.938	-8.669	0	0	0	-133.602	24.733	50.609	-109.614	21.332	167.39	-143.928	-88.235	54.763
739	7.39	-78.376	-14.232	166.875	-129.316	-254.957	187.867	-109.387	-252.875	213.124	-46.816	-153.158	-8.669	-46.816	31.938	-8.669	0	0	0	-133.682	24.629	50.671	-109.679	21.241	167.449	-144.031	-88.336	54.844
740	7.4	-78.374	-14.198	166.811	-129.246	-254.937	187.807	-109.312	-252.851	213.059	-46.816	-153.158	-8.669	-46.816	31.938	-8.669	0	0	0	-133.7	24.643	50.529	-109.666	21.267	167.301	-144.041	-88.322	54.714
741	7.41	-78.348	-14.129	166.806	-129.137	-254.885	187.807	-109.202	-252.792	213.059	-46.816	-153.158	-8.669	-46.816	31.938	-8.669	0	0	0	-133.722	24.688	50.334	-109.671	21.324	167.103	-144.032	-88.28	54.527
742	7.42	-78.26	-14.073	166.945	-128.978	-254.844	187.957	-109.047	-252.743	213.211	-46.816	-153.158	-8.669	-46.816	31.938	-8.669	0	0	0	-133.688	24.732	50.291	-109.649	21.387	167.063	-143.967	-88.238	54.493
743	7.43	-78.122	-14.101	167.165	-128.8	-254.879	188.188	-108.872	-252.773	213.444	-46.816	-153.158	-8.669	-46.816	31.938	-8.669	0	0	0	-133.554	24.772	50.39	-109.535	21.442	167.167	-143.817	-88.2	54.603
744	7.44	-78.034	-14.212	167.303	-128.701	-254.992	188.331	-108.771	-252.885	213.585	-46.816	-153.158	-8.669	-46.816	31.938	-8.669	0	0	0	-133.444	24.776	50.467	-109.426	21.45	167.244	-143.707	-88.195	54.683
745	7.45	-78.078	-14.303	167.317	-128.739	-255.084	188.342	-108.806	-252.978	213.594	-46.816	-153.158	-8.669	-46.816	31.938	-8.669	0	0	0	-133.467	24.753	50.425	-109.435	21.425	167.199	-143.729	-88.218	54.641
746	7.46	-78.212	-14.304	167.32	-128.859	-255.089	188.343	-108.927	-252.981	213.596	-46.816	-153.158	-8.669	-46.816	31.938	-8.669	0	0	0	-133.589	24.763	50.336	-109.55	21.442	167.109	-143.835	-88.21	54.555
747	7.47	-78.323	-14.239	167.385	-128.936	-255.03	188.412	-109.007	-252.918	213.667	-46.816	-153.158	-8.669	-46.816	31.938	-8.669	0	0	0	-133.721	24.857	50.311	-109.691	21.553	167.086	-143.933	-88.119	54.539
748	7.48	-78.326	-14.148	167.454	-128.873	-254.953	188.49	-108.946	-252.834	213.746	-46.816	-153.158	-8.669	-46.816	31.938	-8.669	0	0	0	-133.787	25.006	50.336	-109.764	21.725	167.113	-143.958	-87.973	54.577
749	7.49	-78.244	-14.07	167.461	-128.703	-254.892	188.503	-108.774	-252.766	213.757	-46.816	-153.158	-8.669	-46.816	31.938	-8.669	0	0	0	-133.747	25.109	50.31	-109.712	21.853	167.085	-143.885	-87.872	54.57
750	7.5	-78.167	-14.026	167.414	-128.549	-254.864	188.457	-108.618	-252.733	213.708	-46.816	-153.158	-8.669	-46.816	31.938	-8.669	0	0	0	-133.635	25.119	50.218	-109.583	21.884	166.991	-143.76	-87.863	54.498
751	7.51	-78.12	-14.012	167.348	-128.466	-254.857	188.402	-108.532	-252.722	213.651	-46.816	-153.158	-8.669	-46.816	31.938	-8.669	0	0	0	-133.539	25.089	50.125	-109.481	21.868	166.897	-143.669	-87.891	54.42
752	7.52	-78.048	-14.016	167.275	-128.384	-254.861	188.355	-108.447	-252.724	213.601	-46.816	-153.158	-8.669	-46.816	31.938	-8.669	0	0	0	-133.491	25.086	50.063	-109.433	21.879	166.835	-143.626	-87.893	54.372
753	7.53	-77.92	-14.023	167.221	-128.233	-254.871	188.322	-108.295	-252.73	213.567	-46.816	-153.158	-8.669	-46.816	31.938	-8.669	0	0	0	-133.44	25.149	50.052	-109.375	21.952	166.823	-143.566	-87.831	54.37
754	7.54	-77.788	-14.016	167.231	-128.044	-254.876	188.335	-108.107	-252.729	213.581	-46.816	-153.158	-8.669	-46.816	31.938	-8.669	0	0	0	-133.338	25.259	50.098	-109.261	22.065	166.867	-143.443	-87.723	54.415
755	7.55	-77.731	-14.007	167.293	-127.916	-254.882	188.388	-107.981	-252.731	213.634	-46.816	-153.158	-8.669	-46.816	31.938	-8.669	0	0	0	-133.247	25.306	50.136	-109.164	22.114	166.903	-143.337	-87.677	54.452
756	7.56	-77.77	-14.034	167.368	-127.903	-254.92	188.451	-107.968	-252.766	213.697	-46.816	-153.158	-8.669	-46.816	31.938	-8.669	0	0	0	-133.293	25.216	50.115	-109.213	22.038	166.884	-143.383	-87.766	54.444
757	7.57	-77.844	-14.093	167.438	-127.956	-254.985	188.52	-108.019	-252.829	213.765	-46.816	-153.158	-8.669	-46.816	31.938	-8.669	0	0	0	-133.457	25.115	50.078	-109.38	21.957	166.848	-143.552	-87.866	54.428
758	7.58	-77.913	-14.107	167.472	-128.01	-255.001	188.565	-108.072	-252.843	213.809	-46.816	-153.158	-8.669	-46.816	31.938	-8.669	0	0	0	-133.578	25.183	50.073	-109.501	22.046	166.843	-143.677	-87.797	54.443
759	7.59	-77.983	-14.004	167.44	-128.042	-254.903	188.56	-108.101	-252.74	213.801	-46.816	-153.158	-8.669	-46.816	31.938	-8.669	0	0	0	-133.584	25.389	50.109	-109.502	22.274	166.879	-143.682	-87.59	54.502
760	7.6	-77.969	-13.825	167.367	-127.959	-254.734	188.545	-108.008	-252.562	213.777	-46.816	-153.158	-8.669	-46.816	31.938	-8.669	0	0	0	-133.502	25.563	50.177	-109.401	22.475	166.944	-143.596	-87.416	54.597
761	7.61	-77.733	-13.707	167.288	-127.664	-254.619	188.566	-107.695	-252.437	213.783	-46.816	-153.158	-8.669	-46.816	31.938	-8.669	0	0	0	-133.37	25.596	50.22	-109.209	22.542	166.975	-143.461	-87.382	54.677
762	7.62	-77.346	-13.706	167.235	-127.276	-254.605	188.656	-107.28	-252.416	213.852	-46.816	-153.158	-8.669	-46.816	31.938	-8.669	0	0	0	-133.259	25.522	50.214	-108.994	22.512	166.949	-143.361	-87.453	54.726
763	7.63	-77.055	-13.688	167.234	-127.006	-254.565	188.849	-106.984	-252.365	214.023	-46.816	-153.158	-8.669	-46.816	31.938	-8.669	0	0	0	-133.235	25.509	50.212	-108.84	22.56	166.921	-143.356	-87.46	54.8
764	7.64	-76.928	-13.506	167.214	-126.855	-254.366	189.083	-106.804	-252.145	214.232	-46.816	-153.158	-8.669	-46.816	31.938	-8.669	0	0	0	-133.249	25.667	50.22	-108.713	22.804	166.902	-143.382	-87.297	54.906
765	7.65	-76.836	-13.207	167.122	-126.688	-254.056	189.271	-106.607	-251.808	214.393	-46.816	-153.158	-8.669	-46.816	31.938	-8.669	0	0	0	-133.203	25.876	50.207	-108.533	23.114	166.863	-143.342	-87.084	55.006
766	7.66	-76.697	-12.963	167.092	-126.496	-253.801	189.477	-106.391	-251.531	214.578	-46.816	-153.158	-8.669	-46.816	31.938	-8.669	0	0	0	-133.134	25.934	50.206	-108.37	23.271	166.845	-143.286	-87.02	55.113
767	7.67	-76.545	-12.899	167.199	-126.365	-253.719	189.743	-106.249	-251.437	214.835	-46.816	-153.158	-8.669	-46.816	31.938	-8.669	0	0	0	-133.209	25.803	50.253	-108.409	23.209	166.885	-143.395	-87.144	55.236
768	7.68	-76.473	-12.973	167.286	-126.349	-253.771	189.937	-106.229	-251.483	215.025	-46.816	-153.158	-8.669	-46.816	31.938	-8.669	0	0	0	-133.509	25.61	50.296	-108.702	23.048	166.927	-143.737	-87.332	55.32
769	7.69	-76.536	-13.03	167.215	-126.428	-253.816	189.962	-106.303	-251.521	215.045	-46.816	-153.158	-8.669	-46.816	31.938	-8.669	0	0	0	-133.859	25.484	50.276	-109.046	22.94	166.906	-144.117	-87.454	55.325
770	7.7	-76.65	-12.985	167.091	-126.497	-253.771	189.927	-106.37	-251.464	215.007	-46.816	-153.158	-8.669	-46.816	31.938	-8.669	0	0	0	-133.992	25.472	50.234	-109.175	22.956	166.864	-144.251	-87.464	55.31
771	7.71	-76.716	-12.892	167.107	-126.491	-253.688	190.001	-106.366	-251.368	215.081	-46.816	-153.158	-8.669	-46.816	31.938	-8.669	0	0	0	-133.898	25.523	50.266	-109.098	23.036	166.901	-144.14	-87.414	55.366
772	7.72	-76.746	-12.874	167.234	-126.473	-253.679	190.141	-106.353	-251.353	215.225	-46.816	-153.158	-8.669	-46.816	31.938	-8.669	0	0	0	-133.799	25.507	50.358	-109.027	23.032	166.998	-144.03	-87.431	55.464
